# xmcd
#
# Track frame offsets:
#	150
#	17914
#	37334
#	53210
#	69978
#	86646
#	103592
#	121026
#	132978
#	152081
#	169196
#	183645
#	200611
#	216776
#	230668
#	245199
#	258982
#	275465
#	291331
#	307150
#
# Disc length: 4285 seconds
#
# Revision: 0
# Processed by: cddbd v1.5.2PL0 Copyright (c) Steve Scherf et al.
# Submitted via: audiograbber 1.83.01
#
DISCID=3710bb14
DTITLE=Various Artist - BOK RADIO TOP 40
DYEAR=2013
DGENRE=Pop
TTITLE0=JAKKIE LOUW - NOMMER EEN
TTITLE1=RAY DYLAN - CLEOPATRA
TTITLE2=ADAM - KASTEEL
TTITLE3=PIERRE ROSSOUW - EKSKUUS OOM
TTITLE4=KURT DARREN - DAAI LIEDTJIE OP DIE RADIO
TTITLE5=DESMOND WELLS - DESIRE
TTITLE6=HULLE - STORM VOORT
TTITLE7=ADAM TAS - YSTERLONG
TTITLE8=NICHOLIS LOUW - DIE ENGEL BY MY
TTITLE9=MANIE JACKSON - WAT JY IS
TTITLE10=SNOTKOP - SMOORVERLIEF
TTITLE11=JENNIFER ZAMUDIO - HART EN SIEL
TTITLE12=4 WERKE - DAN SAL EK JOU KOM HAAL
TTITLE13=ARISTA - EK DROOM IN KLEUR
TTITLE14=PIETER SMITH - SIEL OP WIELE
TTITLE15=HENNIE JACOBS - SOEN
TTITLE16=ANDRIETTE - VAT MY HOER
TTITLE17=ALBERT DE WET - BANG VIR DIE DONKER
TTITLE18=MONIQUE - PIENK CHAMPAGNE
TTITLE19=SUSSIE WIE? - RING KA TING TING
EXTD=
EXTT0=
EXTT1=
EXTT2=
EXTT3=
EXTT4=
EXTT5=
EXTT6=
EXTT7=
EXTT8=
EXTT9=
EXTT10=
EXTT11=
EXTT12=
EXTT13=
EXTT14=
EXTT15=
EXTT16=
EXTT17=
EXTT18=
EXTT19=
PLAYORDER=
